<svg width="112" height="57" viewBox="0 0 112 57" fill="none" xmlns="http://www.w3.org/2000/svg">
<g filter="url(#filter0_b_1_43)">
<mask id="path-1-inside-1_1_43" fill="white">
<path fill-rule="evenodd" clip-rule="evenodd" d="M24.0001 0C10.7453 0 0.00012207 10.7452 0.00012207 24C0.00012207 37.2548 10.7453 48 24.0001 48H38.9115C42.1289 48 45.139 49.5877 46.9557 52.243C50.8266 57.9004 59.1734 57.9004 63.0443 52.243C64.861 49.5877 67.8711 48 71.0885 48H88.0001C101.255 48 112 37.2548 112 24C112 10.7452 101.255 0 88.0001 0H24.0001Z"/>
</mask>
<path fill-rule="evenodd" clip-rule="evenodd" d="M24.0001 0C10.7453 0 0.00012207 10.7452 0.00012207 24C0.00012207 37.2548 10.7453 48 24.0001 48H38.9115C42.1289 48 45.139 49.5877 46.9557 52.243C50.8266 57.9004 59.1734 57.9004 63.0443 52.243C64.861 49.5877 67.8711 48 71.0885 48H88.0001C101.255 48 112 37.2548 112 24C112 10.7452 101.255 0 88.0001 0H24.0001Z" fill="white" fill-opacity="0.2"/>
<path d="M0.861661 24C0.861661 11.221 11.2211 0.861538 24.0001 0.861538V-0.861538C10.2695 -0.861538 -0.861416 10.2694 -0.861416 24H0.861661ZM24.0001 47.1385C11.2211 47.1385 0.861661 36.779 0.861661 24H-0.861416C-0.861416 37.7306 10.2695 48.8615 24.0001 48.8615V47.1385ZM38.9115 47.1385H24.0001V48.8615H38.9115V47.1385ZM88.0001 47.1385H71.0885V48.8615H88.0001V47.1385ZM111.139 24C111.139 36.779 100.779 47.1385 88.0001 47.1385V48.8615C101.731 48.8615 112.862 37.7306 112.862 24H111.139ZM88.0001 0.861538C100.779 0.861538 111.139 11.221 111.139 24H112.862C112.862 10.2694 101.731 -0.861538 88.0001 -0.861538V0.861538ZM24.0001 0.861538H88.0001V-0.861538H24.0001V0.861538ZM63.7553 52.7295C65.4115 50.3089 68.1555 48.8615 71.0885 48.8615V47.1385C67.5868 47.1385 64.3106 48.8665 62.3332 51.7565L63.7553 52.7295ZM46.2447 52.7295C50.4577 58.8869 59.5423 58.8869 63.7553 52.7295L62.3332 51.7565C58.8045 56.9138 51.1955 56.9138 47.6668 51.7565L46.2447 52.7295ZM38.9115 48.8615C41.8445 48.8615 44.5885 50.3089 46.2447 52.7295L47.6668 51.7565C45.6894 48.8665 42.4132 47.1385 38.9115 47.1385V48.8615Z" fill="white" fill-opacity="0.6" mask="url(#path-1-inside-1_1_43)"/>
</g>
<defs>
<filter id="filter0_b_1_43" x="-7.99988" y="-8" width="128" height="72.4861" filterUnits="userSpaceOnUse" color-interpolation-filters="sRGB">
<feFlood flood-opacity="0" result="BackgroundImageFix"/>
<feGaussianBlur in="BackgroundImage" stdDeviation="4"/>
<feComposite in2="SourceAlpha" operator="in" result="effect1_backgroundBlur_1_43"/>
<feBlend mode="normal" in="SourceGraphic" in2="effect1_backgroundBlur_1_43" result="shape"/>
</filter>
</defs>
</svg>
